<svg id="Capa_1" enable-background="new 0 0 512 512" height="512" viewBox="0 0 512 512" width="512" xmlns="http://www.w3.org/2000/svg" xmlns:xlink="http://www.w3.org/1999/xlink"><linearGradient id="SVGID_1_" gradientUnits="userSpaceOnUse" x1="256" x2="256" y1="512" y2="0"><stop offset="0" stop-color="#ffedad"/><stop offset="1" stop-color="#ffffe5"/></linearGradient><linearGradient id="SVGID_2_" gradientUnits="userSpaceOnUse" x1="256" x2="256" y1="849.308" y2="142.399"><stop offset="0" stop-color="#ffde00"/><stop offset="1" stop-color="#fd5900"/></linearGradient><g><g><circle cx="256" cy="256" fill="url(#SVGID_1_)" r="256"/></g><g><g><g><path d="m343.488 305.807c-3.47-3.47-9.091-3.47-12.56 0l-6.28 6.28-16.611-16.611c17.343-20.209 27.905-46.394 27.905-75.005 0-2.162-.207-4.273-.325-6.406l-35.664 35.664c.303 2.073.459 4.164.459 6.271 0 24.487-19.924 44.412-44.412 44.412s-44.412-19.925-44.412-44.412c0-2.108.156-4.198.459-6.271l-20.835-20.835c-2.073.304-4.164.46-6.271.46-2.091 0-4.172-.147-6.228-.451l-54.631 54.631c20.597 31.467 56.08 52.409 96.389 52.409 28.613 0 54.796-10.562 75.005-27.905l16.611 16.611-6.28 6.28c-3.47 3.469-3.47 9.09 0 12.56l60.91 60.91c1.735 1.735 4.007 2.603 6.28 2.603s4.545-.867 6.28-2.603l25.12-25.12c3.47-3.47 3.47-9.091 0-12.56zm-158.547-94.219c4.102 0 7.942-1.008 11.416-2.671l35.666 35.666c-1.662 3.474-2.67 7.315-2.67 11.417 0 14.694 11.953 26.647 26.647 26.647s26.647-11.953 26.647-26.647c0-4.102-1.008-7.942-2.67-11.417l88.96-88.96c3.474 1.662 7.315 2.67 11.417 2.67 14.694 0 26.647-11.953 26.647-26.647s-11.954-26.646-26.648-26.646-26.647 11.953-26.647 26.647c0 4.102 1.009 7.942 2.671 11.417l-88.96 88.96c-3.474-1.662-7.314-2.67-11.416-2.67s-7.942 1.008-11.416 2.67l-35.666-35.666c1.662-3.474 2.671-7.314 2.671-11.416 0-14.694-11.953-26.647-26.647-26.647s-26.647 11.953-26.647 26.647c0 4.087 1 7.917 2.651 11.382l-52.392 52.392c1.598 6.396 3.73 12.613 6.573 18.654l58.433-58.433c3.463 1.651 7.293 2.651 11.38 2.651zm-44.412-26.647c0-24.487 19.925-44.412 44.412-44.412s44.412 19.925 44.412 44.412c0 2.107-.156 4.198-.46 6.271l20.835 20.835c2.073-.304 4.164-.459 6.271-.459s4.198.156 6.271.459l54.72-54.72c-20.665-31.452-56.21-52.327-96.519-52.327-63.598 0-115.471 51.873-115.471 115.471 0 2.133.282 4.182.398 6.281l35.583-35.583c-.304-2.056-.452-4.137-.452-6.228z" fill="url(#SVGID_2_)"/></g></g></g></g></svg>